<svg width="136" height="40" viewBox="0 0 136 40" fill="none" xmlns="http://www.w3.org/2000/svg">
<g clip-path="url(#clip0_610_333)">
<path d="M134.591 35.2768C134.591 37.3944 132.874 39.1069 130.761 39.1069H130.757H5.21423C3.09659 39.1112 1.37545 37.3944 1.37109 35.2768V4.72773C1.37545 2.61009 3.09223 0.893311 5.21423 0.893311H130.752C132.87 0.893311 134.587 2.61009 134.587 4.72773L134.591 35.2768Z" fill="white"/>
<path d="M130.757 40H5.21444C2.60442 40 0.486779 37.8867 0.482422 35.2767V4.72767C0.486779 2.11765 2.60442 0.0043573 5.21444 0H130.753C133.363 0.0043573 135.48 2.11765 135.485 4.72767V35.281C135.489 37.8824 133.363 40 130.757 40Z" fill="black"/>
<path opacity="0.1" d="M130.757 0H63.5153L89.8551 40H130.761C133.371 39.9956 135.489 37.8824 135.493 35.2767V4.72767C135.485 2.11765 133.367 0.0043573 130.757 0Z" fill="white"/>
<path d="M31.5931 20.3617C31.5626 17.207 34.177 15.6732 34.2946 15.6035C32.8175 13.4467 30.5255 13.1547 29.7194 13.1286C27.7935 12.9281 25.9286 14.2789 24.9482 14.2789C23.946 14.2789 22.4384 13.146 20.8088 13.1809C18.7129 13.2114 16.7565 14.427 15.6802 16.3094C13.4624 20.1482 15.1181 25.7865 17.2401 28.8889C18.3033 30.4096 19.5451 32.1046 21.1704 32.0436C22.7608 31.9782 23.3534 31.0327 25.275 31.0327C27.1748 31.0327 27.7325 32.0436 29.3926 32.0087C31.1007 31.9826 32.1726 30.4837 33.2009 28.9499C34.4297 27.2114 34.9221 25.4946 34.9438 25.4074C34.9003 25.39 31.6236 24.1395 31.5931 20.3617ZM28.4602 11.0894C29.3142 10.0218 29.9024 8.56648 29.7369 7.08936C28.4994 7.146 26.9526 7.94338 26.0593 8.98913C25.2706 9.91287 24.5648 11.4205 24.7478 12.841C26.1377 12.9456 27.5669 12.1395 28.4602 11.0894Z" fill="white"/>
<path d="M54.6259 30.6974H52.4037L51.188 26.8716H46.9571L45.798 30.6974H43.6324L47.8242 17.6777H50.4124L54.6259 30.6974ZM50.8176 25.2682L49.7152 21.8695C49.5976 21.5209 49.3797 20.7061 49.0573 19.4163H49.0181C48.8873 19.9697 48.6825 20.7889 48.3993 21.8695L47.3187 25.2682H50.8176ZM65.3884 25.8869C65.3884 27.4817 64.9571 28.7453 64.0856 29.6734C63.31 30.4969 62.3427 30.9109 61.1924 30.9109C59.9505 30.9109 59.0529 30.4664 58.5126 29.5775V34.5013H56.4255V24.3923C56.4255 23.3902 56.3993 22.3618 56.347 21.3074H58.1815L58.2991 22.7976H58.3383C59.0355 21.6777 60.09 21.1157 61.5061 21.1157C62.6128 21.1157 63.5366 21.5514 64.2773 22.4272C65.0181 23.303 65.3884 24.4577 65.3884 25.8869ZM63.2621 25.961C63.2621 25.0459 63.0573 24.2921 62.6433 23.6995C62.1902 23.0808 61.5845 22.7714 60.8263 22.7714C60.3122 22.7714 59.846 22.9457 59.4277 23.2812C59.0094 23.6255 58.7348 24.0699 58.6085 24.6233C58.5518 24.8324 58.517 25.0416 58.5126 25.2594V26.8237C58.5126 27.5035 58.7218 28.083 59.1401 28.5536C59.5584 29.0242 60.103 29.2594 60.7741 29.2594C61.5584 29.2594 62.1727 28.9544 62.6085 28.3531C63.0442 27.7518 63.2621 26.9544 63.2621 25.961ZM76.1858 25.8869C76.1858 27.4817 75.7545 28.7453 74.883 29.6734C74.103 30.4969 73.1401 30.9109 71.9854 30.9109C70.7435 30.9109 69.8459 30.4664 69.3056 29.5775V34.5013H67.2185V24.3923C67.2185 23.3902 67.1924 22.3618 67.1401 21.3074H68.9745L69.0921 22.7976H69.1314C69.8242 21.6777 70.883 21.1157 72.2991 21.1157C73.4059 21.1157 74.3296 21.5514 75.0704 22.4272C75.8154 23.303 76.1858 24.4577 76.1858 25.8869ZM74.0595 25.961C74.0595 25.0459 73.8547 24.2921 73.4407 23.6995C72.9876 23.0808 72.3863 22.7714 71.6281 22.7714C71.1139 22.7714 70.6477 22.9457 70.225 23.2812C69.8067 23.6255 69.5322 24.0699 69.4059 24.6233C69.3405 24.8804 69.31 25.0939 69.31 25.2594V26.8237C69.31 27.5035 69.5192 28.083 69.9375 28.5536C70.3558 29.0242 70.9004 29.2594 71.5714 29.2594C72.3601 29.2594 72.9701 28.9544 73.4059 28.3531C73.8416 27.7518 74.0595 26.9544 74.0595 25.961ZM88.2642 27.0416C88.2642 28.1483 87.8764 29.0503 87.1052 29.7475C86.2599 30.5056 85.0747 30.8891 83.5584 30.8891C82.1553 30.8891 81.0355 30.6189 80.1858 30.0786L80.6695 28.3401C81.5845 28.8804 82.5911 29.1505 83.6847 29.1505C84.4734 29.1505 85.0834 28.9719 85.5191 28.6189C85.9549 28.266 86.1771 27.791 86.1771 27.1984C86.1771 26.6712 85.9941 26.2268 85.6368 25.8651C85.2751 25.5035 84.6782 25.1679 83.8416 24.8629C81.5627 24.0133 80.4211 22.7714 80.4211 21.1331C80.4211 20.0655 80.8263 19.1897 81.6281 18.5056C82.4342 17.8215 83.4974 17.4817 84.8263 17.4817C86.0115 17.4817 87.0006 17.6865 87.7806 18.1004L87.2577 19.7997C86.5213 19.3989 85.6891 19.2028 84.7566 19.2028C84.0202 19.2028 83.4451 19.3858 83.0311 19.7431C82.6826 20.0655 82.5083 20.4577 82.5083 20.9239C82.5083 21.4381 82.7087 21.8651 83.1096 22.2006C83.4582 22.51 84.09 22.8455 85.0006 23.2028C86.1204 23.656 86.944 24.1832 87.4756 24.7845C87.9984 25.3902 88.2642 26.144 88.2642 27.0416ZM95.1793 22.8716H92.8786V27.4294C92.8786 28.5884 93.2838 29.1679 94.0943 29.1679C94.469 29.1679 94.7784 29.1374 95.0224 29.0721L95.0791 30.6581C94.6695 30.8106 94.1248 30.8891 93.4582 30.8891C92.6346 30.8891 91.9897 30.6364 91.5235 30.1353C91.0616 29.6342 90.8263 28.7889 90.8263 27.6037V22.8673H89.4582V21.303H90.8263V19.5862L92.8743 18.9675V21.303H95.1749V22.8716H95.1793ZM105.532 25.9261C105.532 27.3684 105.118 28.5536 104.295 29.4817C103.432 30.4359 102.286 30.9109 100.857 30.9109C99.4756 30.9109 98.3819 30.4533 97.5627 29.5427C96.7435 28.6276 96.334 27.4773 96.334 26.0873C96.334 24.632 96.7566 23.4425 97.5976 22.5143C98.4429 21.5862 99.5801 21.1244 101.009 21.1244C102.386 21.1244 103.493 21.5819 104.33 22.4969C105.136 23.3727 105.532 24.5187 105.532 25.9261ZM103.371 25.974C103.371 25.1157 103.184 24.3749 102.813 23.7605C102.378 23.0154 101.75 22.6407 100.94 22.6407C100.103 22.6407 99.4625 23.0154 99.0268 23.7605C98.652 24.3793 98.469 25.1287 98.469 26.0133C98.469 26.876 98.6564 27.6124 99.0268 28.2311C99.4799 28.9762 100.107 29.3509 100.922 29.3509C101.72 29.3509 102.347 28.9719 102.796 28.2137C103.179 27.5775 103.371 26.8324 103.371 25.974ZM112.317 23.1418C112.099 23.1026 111.881 23.0852 111.659 23.0852C110.927 23.0852 110.356 23.3597 109.959 23.9174C109.611 24.4054 109.441 25.0242 109.441 25.7692V30.693H107.354V24.266C107.354 23.2812 107.336 22.2965 107.293 21.3117H109.11L109.188 23.1069H109.245C109.467 22.4882 109.811 21.9915 110.286 21.6167C110.722 21.2899 111.249 21.1157 111.794 21.1157C111.985 21.1157 112.16 21.1287 112.317 21.1549V23.1418ZM121.65 25.5557C121.654 25.8738 121.628 26.1875 121.571 26.5013H115.314C115.336 27.4294 115.641 28.1396 116.221 28.6276C116.748 29.0634 117.432 29.2812 118.269 29.2812C119.197 29.2812 120.042 29.1331 120.8 28.8368L121.127 30.2834C120.238 30.6712 119.188 30.8629 117.981 30.8629C116.526 30.8629 115.384 30.4359 114.552 29.5775C113.724 28.7235 113.306 27.5732 113.306 26.1309C113.306 24.7148 113.693 23.5383 114.465 22.5971C115.275 21.595 116.369 21.0895 117.746 21.0895C119.101 21.0895 120.125 21.5906 120.818 22.5971C121.371 23.3989 121.65 24.388 121.65 25.5557ZM119.659 25.0154C119.672 24.3967 119.537 23.8651 119.253 23.412C118.892 22.8324 118.338 22.5405 117.593 22.5405C116.909 22.5405 116.356 22.8237 115.933 23.3902C115.584 23.8433 115.38 24.3836 115.314 25.0111L119.659 25.0154Z" fill="white"/>
<path d="M46.3521 14.2046C45.7725 14.2046 45.2715 14.1741 44.8531 14.1262V7.83432C45.437 7.74281 46.0296 7.69924 46.6178 7.69924C49.01 7.69924 50.1124 8.87571 50.1124 10.7929C50.1124 13.0064 48.8096 14.2046 46.3521 14.2046ZM46.7006 8.50534C46.3782 8.50534 46.1037 8.52277 45.8728 8.5707V13.355C45.9948 13.3724 46.2344 13.3855 46.5656 13.3855C48.1342 13.3855 49.0274 12.4922 49.0274 10.8234C49.0274 9.33323 48.2213 8.50534 46.7006 8.50534ZM53.546 14.2526C52.1996 14.2526 51.3237 13.246 51.3237 11.8779C51.3237 10.453 52.217 9.4378 53.6244 9.4378C54.9534 9.4378 55.8466 10.3964 55.8466 11.8038C55.8466 13.246 54.9229 14.2526 53.546 14.2526ZM53.5852 10.1872C52.8444 10.1872 52.3695 10.88 52.3695 11.8473C52.3695 12.7972 52.8531 13.49 53.5765 13.49C54.2998 13.49 54.7834 12.7493 54.7834 11.8299C54.7834 10.8887 54.3085 10.1872 53.5852 10.1872ZM63.5372 9.53366L62.095 14.148H61.1538L60.5569 12.1436C60.4087 11.6556 60.2823 11.1545 60.1865 10.6534H60.1691C60.095 11.1545 59.9512 11.66 59.7987 12.1436L59.1625 14.148H58.2126L56.8532 9.53366H57.9076L58.4305 11.7253C58.5525 12.2482 58.6571 12.7406 58.7442 13.2068H58.7617C58.8357 12.819 58.9621 12.331 59.1407 11.7341L59.7943 9.53366H60.6309L61.2584 11.6905C61.4109 12.2134 61.5329 12.7275 61.6287 13.2112H61.6549C61.7202 12.7362 61.8248 12.2308 61.9686 11.6905L62.5307 9.53366H63.5372ZM68.8488 14.148H67.8248V11.4988C67.8248 10.6839 67.5111 10.2744 66.8924 10.2744C66.2867 10.2744 65.8684 10.7972 65.8684 11.4029V14.148H64.8444V10.8495C64.8444 10.4399 64.8357 10.0042 64.8052 9.52931H65.7072L65.7551 10.2395H65.7856C66.0601 9.74717 66.6222 9.43345 67.2497 9.43345C68.217 9.43345 68.8531 10.1741 68.8531 11.3811L68.8488 14.148ZM71.6767 14.148H70.6484V7.41602H71.6767V14.148ZM75.4152 14.2526C74.0688 14.2526 73.193 13.246 73.193 11.8779C73.193 10.453 74.0863 9.4378 75.4893 9.4378C76.8183 9.4378 77.7115 10.3964 77.7115 11.8038C77.7159 13.246 76.7921 14.2526 75.4152 14.2526ZM75.4545 10.1872C74.7137 10.1872 74.2388 10.88 74.2388 11.8473C74.2388 12.7972 74.7224 13.49 75.4414 13.49C76.1647 13.49 76.6484 12.7493 76.6484 11.8299C76.6484 10.8887 76.1778 10.1872 75.4545 10.1872ZM81.7551 14.148L81.681 13.6164H81.6549C81.3412 14.0434 80.8837 14.2526 80.3041 14.2526C79.4762 14.2526 78.888 13.6731 78.888 12.8931C78.888 11.7558 79.8771 11.1633 81.5852 11.1633V11.0761C81.5852 10.4704 81.2627 10.1654 80.6266 10.1654C80.1734 10.1654 79.7725 10.2787 79.4196 10.5097L79.2104 9.83432C79.6375 9.56852 80.1691 9.43345 80.7965 9.43345C82.0035 9.43345 82.6091 10.0696 82.6091 11.3419V13.0412C82.6091 13.5075 82.6309 13.8691 82.6745 14.1436L81.7551 14.148ZM81.6157 11.8473C80.4784 11.8473 79.9032 12.1219 79.9032 12.7798C79.9032 13.2635 80.1996 13.4988 80.6048 13.4988C81.1277 13.4988 81.6113 13.1023 81.6113 12.5576V11.8473H81.6157ZM87.5939 14.148L87.546 13.4073H87.5155C87.2192 13.965 86.7268 14.2526 86.034 14.2526C84.9229 14.2526 84.0993 13.2722 84.0993 11.8996C84.0993 10.4574 84.9534 9.44216 86.1211 9.44216C86.7399 9.44216 87.1756 9.65131 87.4239 10.0696H87.4457V7.42037H88.4741V12.9062C88.4741 13.3506 88.4828 13.7689 88.5133 14.148H87.5939ZM87.4457 11.4334C87.4457 10.7885 87.0187 10.2351 86.3651 10.2351C85.6026 10.2351 85.1407 10.9105 85.1407 11.8561C85.1407 12.7885 85.6244 13.4247 86.3433 13.4247C86.9882 13.4247 87.4457 12.8626 87.4457 12.2003V11.4334ZM94.9795 14.2526C93.6331 14.2526 92.7573 13.246 92.7573 11.8779C92.7573 10.453 93.6505 9.4378 95.0536 9.4378C96.3826 9.4378 97.2758 10.3964 97.2758 11.8038C97.2802 13.246 96.3564 14.2526 94.9795 14.2526ZM95.0187 10.1872C94.278 10.1872 93.803 10.88 93.803 11.8473C93.803 12.7972 94.2867 13.49 95.0057 13.49C95.729 13.49 96.2126 12.7493 96.2126 11.8299C96.2126 10.8887 95.742 10.1872 95.0187 10.1872ZM102.792 14.148H101.764V11.4988C101.764 10.6839 101.45 10.2744 100.831 10.2744C100.226 10.2744 99.8074 10.7972 99.8074 11.4029V14.148H98.7791V10.8495C98.7791 10.4399 98.7704 10.0042 98.7399 9.52931H99.6418L99.6898 10.2395H99.7203C99.9948 9.74717 100.557 9.43345 101.184 9.43345C102.152 9.43345 102.792 10.1741 102.792 11.3811V14.148ZM109.694 10.3005H108.566V12.5402C108.566 13.111 108.762 13.3942 109.163 13.3942C109.346 13.3942 109.494 13.3768 109.616 13.3463L109.646 14.1262C109.446 14.2046 109.18 14.2395 108.849 14.2395C108.038 14.2395 107.559 13.7951 107.559 12.6273V10.3005H106.884V9.53366H107.559V8.68835L108.566 8.38334V9.53366H109.694V10.3005ZM115.123 14.148H114.099V11.5162C114.099 10.6927 113.786 10.2744 113.167 10.2744C112.635 10.2744 112.139 10.636 112.139 11.368V14.148H111.115V7.41602H112.139V10.1872H112.16C112.483 9.68617 112.949 9.4378 113.546 9.4378C114.522 9.4378 115.119 10.1959 115.119 11.4029L115.123 14.148ZM120.683 12.087H117.607C117.624 12.9585 118.204 13.4552 119.062 13.4552C119.515 13.4552 119.938 13.3768 120.304 13.2373L120.465 13.9476C120.03 14.1393 119.515 14.2308 118.919 14.2308C117.476 14.2308 116.622 13.3201 116.622 11.904C116.622 10.4879 117.498 9.42473 118.805 9.42473C119.986 9.42473 120.722 10.3005 120.722 11.6164C120.727 11.7776 120.714 11.9345 120.683 12.087ZM119.742 11.355C119.742 10.6447 119.385 10.1393 118.727 10.1393C118.139 10.1393 117.672 10.6534 117.607 11.355H119.742Z" fill="white"/>
</g>
<defs>
<clipPath id="clip0_610_333">
<rect width="136" height="40" fill="white"/>
</clipPath>
</defs>
</svg>
