<svg width="40" height="40" viewBox="0 0 40 40" fill="none" xmlns="http://www.w3.org/2000/svg">
<path fill-rule="evenodd" clip-rule="evenodd" d="M28.925 37.0538C25.5581 36.2103 18.6657 33.8322 12.4171 27.5837C6.16857 21.3352 3.79048 14.4426 2.94693 11.0758C2.46217 9.14098 3.33512 7.2739 4.8153 6.21662L8.69572 3.44488C10.9662 1.82313 14.1247 2.37345 15.7129 4.66752L18.1558 8.19627C19.1928 9.69417 18.8351 11.7472 17.3527 12.8061L15.4047 14.1975C15.6995 15.3252 16.6165 17.641 19.4881 20.5127C22.3598 23.3843 24.6756 24.3012 25.8033 24.596L27.1946 22.648C28.2536 21.1657 30.3066 20.8078 31.8045 21.8448L35.3333 24.2878C37.6273 25.8762 38.1777 29.0345 36.5558 31.305L33.7842 35.1855C32.7268 36.6657 30.8598 37.5387 28.925 37.0538ZM14.7741 25.2267C20.4565 30.909 26.7271 33.0668 29.735 33.8205C30.1747 33.9305 30.7062 33.7597 31.0716 33.248L33.8435 29.3675C34.384 28.6108 34.2007 27.558 33.4358 27.0285L29.9072 24.5855L28.414 26.676C27.8038 27.5303 26.6753 28.2003 25.3613 27.9168C23.7213 27.563 20.6896 26.4282 17.1312 22.8697C13.5727 19.3112 12.4378 16.2795 12.0839 14.6395C11.8004 13.3255 12.4705 12.197 13.3248 11.5868L15.4152 10.0936L12.9722 6.56488C12.4428 5.80018 11.39 5.61675 10.6332 6.15733L6.75277 8.92907C6.24103 9.29458 6.07018 9.82608 6.18033 10.2657C6.93397 13.2736 9.0918 19.5443 14.7741 25.2267Z" fill="#005EAE"/>
</svg>
