<svg width="136" height="40" viewBox="0 0 136 40" fill="none" xmlns="http://www.w3.org/2000/svg">
<g clip-path="url(#clip0_610_341)">
<path d="M134.602 35.2768C134.602 37.3944 132.886 39.1069 130.772 39.1069H130.768H5.22552C3.10788 39.1112 1.38674 37.3988 1.38239 35.2768V4.72773C1.38674 2.61009 3.10352 0.893311 5.22552 0.893311H130.764C132.881 0.893311 134.598 2.61009 134.598 4.72773L134.602 35.2768Z" fill="white"/>
<path d="M130.768 40H5.22543C2.61541 40 0.497766 37.8867 0.493408 35.2767V4.72767C0.497766 2.11765 2.61541 0.0043573 5.22543 0H130.764C133.374 0.0043573 135.491 2.11765 135.496 4.72767V35.281C135.5 37.8824 133.374 40 130.768 40Z" fill="black"/>
<path opacity="0.1" d="M130.768 0H63.5217L89.8615 40H130.768C133.378 39.9956 135.496 37.8824 135.5 35.2767V4.72767C135.491 2.11765 133.378 0.0043573 130.768 0Z" fill="white"/>
<path d="M48.1971 12.0916C48.1971 12.8759 48.001 13.56 47.513 14.048C46.9248 14.6362 46.2407 14.9282 45.3605 14.9282C44.4803 14.9282 43.7962 14.6362 43.208 14.048C42.6198 13.4597 42.3278 12.7756 42.3278 11.8955C42.3278 11.0153 42.6198 10.3312 43.208 9.74297C43.7962 9.15473 44.4803 8.86279 45.3605 8.86279C45.7527 8.86279 46.1448 8.95865 46.5326 9.15473C46.9248 9.35081 47.2167 9.54689 47.4128 9.83883L46.9248 10.3268C46.5326 9.83883 46.0446 9.64275 45.3605 9.64275C44.7723 9.64275 44.1884 9.83883 43.7962 10.3268C43.3082 10.719 43.1121 11.3029 43.1121 11.987C43.1121 12.6711 43.3082 13.2593 43.7962 13.6471C44.2842 14.0393 44.7723 14.3312 45.3605 14.3312C46.0446 14.3312 46.5326 14.1351 47.0206 13.6471C47.3126 13.3552 47.5086 12.963 47.5086 12.475H45.3561V11.6907H48.1927L48.1971 12.0916ZM52.6938 9.64711H50.0533V11.5033H52.4978V12.1874H50.0533V14.0436H52.6938V14.8279H49.2734V8.96301H52.6938V9.64711ZM55.9226 14.8323H55.1383V9.64711H53.4781V8.96301H57.5827V9.64711H55.9226V14.8323ZM60.4193 14.8323V8.96301H61.2036V14.8279H60.4193V14.8323ZM64.5283 14.8323H63.7439V9.64711H62.0838V8.96301H66.0925V9.64711H64.4324V14.8279H64.5283V14.8323ZM73.8137 14.048C73.2254 14.6362 72.5413 14.9282 71.6612 14.9282C70.781 14.9282 70.0969 14.6362 69.5086 14.048C68.9204 13.4597 68.6285 12.7756 68.6285 11.8955C68.6285 11.0153 68.9204 10.3312 69.5086 9.74297C70.0969 9.15473 70.781 8.86279 71.6612 8.86279C72.5413 8.86279 73.2254 9.15473 73.8137 9.74297C74.4019 10.3312 74.6938 11.0153 74.6938 11.8955C74.6938 12.7756 74.4019 13.4597 73.8137 14.048ZM70.1012 13.56C70.4934 13.9521 71.0773 14.2441 71.6655 14.2441C72.2537 14.2441 72.8376 14.048 73.2298 13.56C73.6219 13.1678 73.9139 12.5839 73.9139 11.8998C73.9139 11.2157 73.7178 10.6275 73.2298 10.2397C72.8376 9.84754 72.2537 9.5556 71.6655 9.5556C71.0773 9.5556 70.4934 9.75168 70.1012 10.2397C69.7091 10.6319 69.4171 11.2157 69.4171 11.8998C69.4171 12.5839 69.6089 13.1678 70.1012 13.56ZM75.7701 14.8323V8.96301H76.6503L79.4869 13.56V8.96301H80.2712V14.8279H79.4869L76.4542 10.0349V14.8279H75.7701V14.8323Z" fill="white"/>
<path d="M68.4366 22.1612C66.088 22.1612 64.2318 23.9215 64.2318 26.3659C64.2318 28.7145 66.088 30.5707 68.4366 30.5707C70.7851 30.5707 72.6413 28.8104 72.6413 26.3659C72.6413 23.8256 70.7851 22.1612 68.4366 22.1612ZM68.4366 28.8104C67.1642 28.8104 66.088 27.7341 66.088 26.2701C66.088 24.8017 67.1642 23.7298 68.4366 23.7298C69.7089 23.7298 70.7851 24.7058 70.7851 26.2701C70.7851 27.7341 69.7089 28.8104 68.4366 28.8104ZM59.3429 22.1612C56.9943 22.1612 55.1381 23.9215 55.1381 26.3659C55.1381 28.7145 56.9943 30.5707 59.3429 30.5707C61.6915 30.5707 63.5477 28.8104 63.5477 26.3659C63.5477 23.8256 61.6915 22.1612 59.3429 22.1612ZM59.3429 28.8104C58.0705 28.8104 56.9943 27.7341 56.9943 26.2701C56.9943 24.8017 58.0705 23.7298 59.3429 23.7298C60.6152 23.7298 61.6915 24.7058 61.6915 26.2701C61.6915 27.7341 60.6152 28.8104 59.3429 28.8104ZM48.4888 23.4335V25.1938H52.6936C52.5978 26.1699 52.2056 26.9542 51.7176 27.4422C51.1294 28.0304 50.1533 28.7145 48.4888 28.7145C45.8483 28.7145 43.8919 26.6622 43.8919 24.0217C43.8919 21.3812 45.9442 19.3289 48.4888 19.3289C49.857 19.3289 50.9333 19.9171 51.7176 20.6012L52.9899 19.3289C51.9137 18.3529 50.5455 17.5686 48.5891 17.5686C45.0684 17.5686 42.04 20.501 42.04 24.0217C42.04 27.5424 45.0727 30.4749 48.5891 30.4749C50.5455 30.4749 51.9137 29.8866 53.0858 28.6187C54.2579 27.4466 54.6501 25.7821 54.6501 24.5141C54.6501 24.1219 54.6501 23.7298 54.5542 23.4378L48.4888 23.4335ZM92.881 24.8017C92.4888 23.8256 91.5128 22.1612 89.3603 22.1612C87.2078 22.1612 85.4474 23.8213 85.4474 26.3659C85.4474 28.7145 87.2078 30.5707 89.552 30.5707C91.4082 30.5707 92.5847 29.3986 92.9725 28.7145L91.6043 27.7385C91.1163 28.4226 90.5281 28.9106 89.552 28.9106C88.576 28.9106 87.9877 28.5185 87.4997 27.6383L93.0727 25.2897L92.881 24.8017ZM87.2122 26.1699C87.2122 24.6056 88.4845 23.7254 89.3647 23.7254C90.0488 23.7254 90.7328 24.1176 90.9289 24.6056L87.2122 26.1699ZM82.6152 30.1786H84.4714V17.9564H82.6152V30.1786ZM79.6827 23.0413C79.1947 22.5533 78.4104 22.0653 77.4344 22.0653C75.3821 22.0653 73.4257 23.9215 73.4257 26.2701C73.4257 28.6187 75.2819 30.3747 77.4344 30.3747C78.4104 30.3747 79.1947 29.8866 79.5869 29.3986H79.6827V29.9869C79.6827 31.5511 78.8026 32.4313 77.4344 32.4313C76.3581 32.4313 75.5782 31.647 75.3821 30.9629L73.8178 31.647C74.3058 32.7232 75.4779 34.0914 77.5346 34.0914C79.6871 34.0914 81.4474 32.8191 81.4474 29.7908V22.3572H79.6871L79.6827 23.0413ZM77.5302 28.8104C76.2579 28.8104 75.1817 27.7341 75.1817 26.2701C75.1817 24.806 76.2579 23.7298 77.5302 23.7298C78.8026 23.7298 79.7786 24.806 79.7786 26.2701C79.7786 27.7341 78.8026 28.8104 77.5302 28.8104ZM101.391 17.9564H96.9899V30.1786H98.8461V25.586H101.386C103.439 25.586 105.395 24.1176 105.395 21.7734C105.395 19.4291 103.443 17.9564 101.391 17.9564ZM101.487 23.8256H98.8461V19.6209H101.487C102.855 19.6209 103.639 20.793 103.639 21.6731C103.539 22.7494 102.759 23.8256 101.487 23.8256ZM112.733 22.0653C111.365 22.0653 109.996 22.6535 109.504 23.9215L111.164 24.6056C111.556 23.9215 112.14 23.7254 112.824 23.7254C113.8 23.7254 114.681 24.3137 114.781 25.2897V25.3856C114.489 25.1895 113.705 24.8975 112.925 24.8975C111.164 24.8975 109.404 25.8736 109.404 27.6339C109.404 29.2941 110.872 30.3703 112.437 30.3703C113.709 30.3703 114.293 29.7821 114.785 29.1982H114.881V30.1742H116.641V25.4858C116.445 23.3376 114.785 22.0653 112.733 22.0653ZM112.537 28.8104C111.949 28.8104 111.068 28.5185 111.068 27.7341C111.068 26.7581 112.145 26.4618 113.025 26.4618C113.809 26.4618 114.197 26.6579 114.685 26.854C114.493 28.0304 113.513 28.8104 112.537 28.8104ZM122.803 22.3572L120.75 27.6383H120.654L118.502 22.3572H116.545L119.774 29.7864L117.918 33.891H119.774L124.759 22.3529H122.803V22.3572ZM106.376 30.1786H108.232V17.9564H106.376V30.1786Z" fill="white"/>
<path d="M15.025 8.11768C14.733 8.40961 14.6328 8.90199 14.6328 9.48587V31.0937C14.6328 31.6819 14.8289 32.17 15.1208 32.4619L15.2167 32.5578L27.3431 20.4358V20.2397L15.025 8.11768Z" fill="url(#paint0_linear_610_341)"/>
<path d="M31.256 24.5447L27.2473 20.536V20.2441L31.256 16.2354L31.3518 16.3312L36.1449 19.0676C37.513 19.8519 37.513 21.1199 36.1449 21.9042L31.256 24.5447Z" fill="url(#paint1_linear_610_341)"/>
<path d="M31.3518 24.4446L27.2472 20.3401L15.025 32.5623C15.513 33.0503 16.1971 33.0503 17.0773 32.6581L31.3518 24.4446Z" fill="url(#paint2_linear_610_341)"/>
<path d="M31.3518 16.2308L17.0773 8.11749C16.1971 7.62947 15.513 7.72533 15.025 8.21335L27.2472 20.3397L31.3518 16.2308Z" fill="url(#paint3_linear_610_341)"/>
</g>
<defs>
<linearGradient id="paint0_linear_610_341" x1="20.9875" y1="8.04648" x2="20.9875" y2="32.3799" gradientUnits="userSpaceOnUse">
<stop stop-color="#267CAF"/>
<stop offset="0.286" stop-color="#4A92B4"/>
<stop offset="0.767" stop-color="#79BCBA"/>
<stop offset="1" stop-color="#88CEBC"/>
</linearGradient>
<linearGradient id="paint1_linear_610_341" x1="33.5724" y1="17.4026" x2="30.6048" y2="24.1149" gradientUnits="userSpaceOnUse">
<stop stop-color="#F48879"/>
<stop offset="0.119" stop-color="#F5907A"/>
<stop offset="0.713" stop-color="#FBB777"/>
<stop offset="1" stop-color="#FDC874"/>
</linearGradient>
<linearGradient id="paint2_linear_610_341" x1="29.1589" y1="22.5061" x2="15.8062" y2="33.3043" gradientUnits="userSpaceOnUse">
<stop stop-color="#EB413D"/>
<stop offset="0.167" stop-color="#D94452"/>
<stop offset="0.575" stop-color="#AF487A"/>
<stop offset="0.862" stop-color="#954B92"/>
<stop offset="1" stop-color="#894A9C"/>
</linearGradient>
<linearGradient id="paint3_linear_610_341" x1="16.7539" y1="8.70638" x2="29.5261" y2="18.4597" gradientUnits="userSpaceOnUse">
<stop stop-color="#54C0AC"/>
<stop offset="1" stop-color="#DDE79A"/>
</linearGradient>
<clipPath id="clip0_610_341">
<rect width="136" height="40" fill="white"/>
</clipPath>
</defs>
</svg>
